<svg xmlns="http://www.w3.org/2000/svg" width="1163" height="951" fill="none"><path fill="transparent" d="M0 0h1163v951H0z"/><path fill="#f66" d="M1055.08 207.655c-49.65-30.493-97.093-31.561-116.576-28.006-1.129.206-2.089.925-2.649 1.927l-55.606 99.431c-1.274 2.278-.061 5.146 2.461 5.818l107.509 28.638a3.911 3.911 0 0 0 3.591-.815c19.48-17 56.57-58.884 63.09-103.141.23-1.529-.51-3.043-1.82-3.852Z"/><path stroke="#fff" stroke-linecap="round" stroke-width="2" d="M1042.61 215.699 833.648 305.13M996.273 205.414c-.66 8.701-4.309 28.05-13.627 35.841M891.659 250.339c1.338 6.222.432 22.184-13.899 36.261M983.09 271.899c-4.308-3.775-17.566-12.062-36.138-15.01M890.892 312.345c-4.144-5.257-17.342-15.726-36.978-15.553"/><path fill="#f7e643" d="M950.428 82.756C740.717 102.759 794.736 300.529 794.736 307l-4.509 73.49c-.202 3.295 3.414 5.41 6.136 3.543 82.394-56.528 212.937-182.409 158.076-299.038-.701-1.49-2.37-2.396-4.011-2.24Z"/><path stroke="#fff" stroke-linecap="round" stroke-width="2" d="m943.236 100-127 188.5M898.736 116.5c4.167 7.667 11.6 25.9 8 37.5M835.236 211c4.5 4.5 12.4 18.4 8 38M923.736 179.5c-5.667-.833-21.3-.6-38.5 7M868.236 263.5c-6.333-2.167-23.1-3.8-39.5 7"/><path fill="#feafe5" d="M1067.25 393.442c-132.222 102.023-247.22-8.744-290.777-80.674-1.228-2.029-.415-4.592 1.754-5.553 59.507-26.356 215.899-83.653 290.223 81.394.75 1.658.24 3.722-1.2 4.833Z"/><path stroke="#fff" stroke-linecap="round" stroke-width="2" d="m1048.47 386.636-218.854-61.339M1018.83 349.574c-5.97 6.365-20.946 19.151-33.09 19.378M909.161 318.983c-2.858 5.686-13.572 17.554-33.562 19.535M966.873 393.103c-.989-5.641-6.123-20.41-18.742-34.35M869.689 366.808c.067-6.694-3.651-23.124-19.057-35.3"/><path fill="#FF85B6" d="M776.528 81H434.051c-29.963 0-54.253 21.433-54.253 47.872v692.256c0 26.439 24.29 47.872 54.253 47.872h342.477c29.963 0 54.253-21.433 54.253-47.872V128.872c0-26.439-24.29-47.872-54.253-47.872Z"/><path fill="#feafe5" d="M823.673 820.75V129.269c0-23.194-21.309-41.997-47.594-41.997H434.501c-26.286 0-47.595 18.803-47.595 41.997V820.75c0 23.194 21.309 41.997 47.595 41.997h341.578c26.285 0 47.594-18.803 47.594-41.997Z"/><path fill="#FDE7F0" d="M572.896 112.096c-1.329 0-2.603-.466-3.543-1.295-.939-.829-1.467-1.953-1.467-3.126 0-1.172.528-2.297 1.467-3.126.94-.829 2.214-1.294 3.543-1.294h64.487c1.329 0 2.604.465 3.543 1.294.94.829 1.467 1.954 1.467 3.126 0 1.173-.527 2.297-1.467 3.126-.939.829-2.214 1.295-3.543 1.295h-64.487ZM538.319 112.096c-.991 0-1.96-.259-2.784-.745-.824-.486-1.466-1.176-1.845-1.984a3.943 3.943 0 0 1-.285-2.554c.193-.858.67-1.645 1.371-2.264a5.243 5.243 0 0 1 2.565-1.209 5.636 5.636 0 0 1 2.895.251c.915.335 1.698.901 2.248 1.628a4.06 4.06 0 0 1 .845 2.456c-.006 1.171-.536 2.293-1.474 3.121-.938.828-2.209 1.295-3.536 1.3ZM556.774 112.096a5.492 5.492 0 0 1-2.783-.745c-.824-.486-1.466-1.176-1.845-1.984a3.937 3.937 0 0 1-.286-2.554c.194-.858.671-1.645 1.372-2.264a5.24 5.24 0 0 1 2.565-1.209 5.632 5.632 0 0 1 2.894.251c.916.335 1.698.901 2.249 1.628.55.727.844 1.582.844 2.456 0 1.173-.528 2.297-1.467 3.126-.94.829-2.214 1.295-3.543 1.295ZM672.261 112.096c-.991 0-1.96-.259-2.784-.745-.824-.486-1.466-1.176-1.845-1.984a3.943 3.943 0 0 1-.285-2.554c.193-.858.67-1.645 1.371-2.264a5.243 5.243 0 0 1 2.565-1.209 5.636 5.636 0 0 1 2.895.251c.915.335 1.698.901 2.248 1.628a4.06 4.06 0 0 1 .845 2.456c-.006 1.171-.536 2.293-1.474 3.121-.938.828-2.209 1.295-3.536 1.3ZM653.805 112.096a5.492 5.492 0 0 1-2.783-.745c-.824-.486-1.466-1.176-1.846-1.984a3.943 3.943 0 0 1-.285-2.554c.194-.858.671-1.645 1.372-2.264a5.24 5.24 0 0 1 2.565-1.209 5.632 5.632 0 0 1 2.894.251c.916.335 1.698.901 2.249 1.628.55.727.844 1.582.844 2.456-.006 1.171-.535 2.293-1.474 3.121-.938.828-2.209 1.295-3.536 1.3Z"/><path fill="#FAFAFA" d="M782.523 92.58H704.44c-2.857-.004-5.639.81-7.928 2.319-2.289 1.509-3.962 3.632-4.768 6.051l-4.967 15.113c-.895 2.723-2.767 5.115-5.334 6.818-2.567 1.704-5.692 2.626-8.904 2.628H537.955c-3.213-.002-6.337-.924-8.904-2.628-2.568-1.703-4.44-4.095-5.334-6.818l-4.967-15.113c-.802-2.43-2.475-4.564-4.768-6.083-2.293-1.52-5.082-2.342-7.95-2.343h-60.634c-6.348 0-12.635 1.103-18.5 3.247s-11.195 5.286-15.684 9.247c-4.489 3.961-8.05 8.664-10.48 13.839-2.429 5.176-3.68 10.723-3.68 16.325v688.27c0 7.646 3.443 14.978 9.57 20.385 6.127 5.406 14.437 8.444 23.102 8.444h355.088c7.609 0 14.906-2.667 20.286-7.415 5.381-4.747 8.404-11.187 8.404-17.901V119.842c-.023-7.237-3.297-14.171-9.105-19.281-5.807-5.11-13.674-7.98-21.876-7.98Z"/><path fill="#feafe5" d="M831.445 342.842h-.664v-90.493h.664c.608 0 1.19.213 1.62.593.43.379.671.893.671 1.429v86.449c0 .536-.241 1.051-.671 1.43a2.455 2.455 0 0 1-1.62.592Z"/><path fill="#8a89bc" d="M379.027 308.081h.792v57.337h-.792a2.456 2.456 0 0 1-1.612-.586c-.429-.375-.673-.884-.679-1.417v-53.313c0-.536.241-1.05.671-1.429a2.455 2.455 0 0 1 1.62-.592ZM379.027 233.174h.792v57.337h-.792c-.604 0-1.183-.21-1.612-.585-.429-.375-.673-.885-.679-1.417v-53.313c0-.536.241-1.051.671-1.43a2.455 2.455 0 0 1 1.62-.592ZM379.177 176.952h.621v26.656h-.621a2.181 2.181 0 0 1-1.388-.498 1.716 1.716 0 0 1-.625-1.202v-23.18c.006-.47.22-.918.596-1.25a2.178 2.178 0 0 1 1.417-.526Z"/><rect width="438" height="665" x="336.736" y="151" fill="#F8F3FF" rx="20"/><circle cx="408.736" cy="304" r="42" fill="#f7e643"/><path fill="#fff" d="M431.736 327h-46c0-12.703 10.298-23 23-23 12.703 0 23 10.297 23 23Z"/><circle cx="408.736" cy="289" r="9" fill="#fff"/><rect width="151" height="6" x="475.736" y="278" fill="#D5DFFF" rx="3"/><rect width="108" height="6" x="475.736" y="301" fill="#D5DFFF" rx="3"/><rect width="75" height="6" x="603.736" y="301" fill="#D5DFFF" rx="3"/><rect width="38" height="6" x="640.736" y="278" fill="#D5DFFF" rx="3"/><rect width="203" height="6" x="475.736" y="324" fill="#D5DFFF" rx="3"/><path fill="#abe4ff" d="m705.281 283.741 6.334-6.332c.264-.264.66-.462.99-.396.396 0 .726.198.99.462l9.237 11.279c.462.527.396 1.319-.066 1.781l-5.278 5.277-.066.066c0 .065-.066.065-.066.131s-.066.066-.066.132c0 0-.066.066-.066.132s0 .066-.066.132v.792c0 .066 0 .066.066.132 0 .066.066.066.066.132v.066c1.979 3.627 4.42 8.179 8.181 11.938 3.761 3.76 8.314 6.201 11.943 8.18h.066c.066 0 .132.065.198.065h.33c.132 0 .198 0 .33-.065h.066c.066 0 .132-.066.198-.066 0 0 .066 0 .066-.066.066-.066.197-.132.263-.198l5.279-5.277c.462-.462 1.254-.528 1.781-.066l11.283 9.168c.264.264.462.594.462.99s-.132.725-.396.989l-6.334 6.332c-2.837 2.837-8.116 1.254-11.943-.593-5.608-2.705-12.272-7.784-18.804-14.314-6.532-6.53-11.613-13.192-14.318-18.798-1.914-3.958-3.497-9.169-.66-12.005Z"/><circle cx="408.736" cy="440" r="42" fill="#F55B99"/><path fill="#fff" d="M431.736 463h-46c0-12.703 10.298-23 23-23 12.703 0 23 10.297 23 23Z"/><circle cx="408.736" cy="425" r="9" fill="#fff"/><rect width="151" height="6" x="475.736" y="414" fill="#D5DFFF" rx="3"/><rect width="108" height="6" x="475.736" y="437" fill="#D5DFFF" rx="3"/><rect width="75" height="6" x="603.736" y="437" fill="#D5DFFF" rx="3"/><rect width="38" height="6" x="640.736" y="414" fill="#D5DFFF" rx="3"/><rect width="203" height="6" x="475.736" y="460" fill="#D5DFFF" rx="3"/><path fill="#abe4ff" d="m705.281 419.741 6.334-6.332c.264-.264.66-.462.99-.396.396 0 .726.198.99.462l9.237 11.279c.462.527.396 1.319-.066 1.781l-5.278 5.277-.066.066c0 .065-.066.065-.066.131s-.066.066-.066.132c0 0-.066.066-.066.132s0 .066-.066.132v.792c0 .066 0 .066.066.132 0 .066.066.066.066.132v.066c1.979 3.627 4.42 8.179 8.181 11.938 3.761 3.76 8.314 6.201 11.943 8.18h.066c.066 0 .132.065.198.065h.33c.132 0 .198 0 .33-.065h.066c.066 0 .132-.066.198-.066 0 0 .066 0 .066-.066.066-.066.197-.132.263-.198l5.279-5.277c.462-.462 1.254-.528 1.781-.066l11.283 9.168c.264.264.462.594.462.99s-.132.725-.396.989l-6.334 6.332c-2.837 2.837-8.116 1.254-11.943-.593-5.608-2.705-12.272-7.784-18.804-14.314-6.532-6.53-11.613-13.192-14.318-18.798-1.914-3.958-3.497-9.169-.66-12.005Z"/><circle cx="408.736" cy="576" r="42" fill="#abe4ff"/><path fill="#fff" d="M431.736 599h-46c0-12.703 10.298-23 23-23 12.703 0 23 10.297 23 23Z"/><circle cx="408.736" cy="561" r="9" fill="#fff"/><rect width="151" height="6" x="475.736" y="550" fill="#D5DFFF" rx="3"/><rect width="108" height="6" x="475.736" y="573" fill="#D5DFFF" rx="3"/><rect width="75" height="6" x="603.736" y="573" fill="#D5DFFF" rx="3"/><rect width="38" height="6" x="640.736" y="550" fill="#D5DFFF" rx="3"/><rect width="203" height="6" x="475.736" y="596" fill="#D5DFFF" rx="3"/><path fill="#abe4ff" d="m705.281 555.741 6.334-6.332c.264-.264.66-.462.99-.396.396 0 .726.198.99.462l9.237 11.279c.462.527.396 1.319-.066 1.781l-5.278 5.277-.066.066c0 .065-.066.065-.066.131s-.066.066-.066.132c0 0-.066.066-.066.132s0 .066-.066.132v.792c0 .066 0 .066.066.132 0 .066.066.066.066.132v.066c1.979 3.627 4.42 8.179 8.181 11.938 3.761 3.76 8.314 6.201 11.943 8.18h.066c.066 0 .132.065.198.065h.33c.132 0 .198 0 .33-.065h.066c.066 0 .132-.066.198-.066 0 0 .066 0 .066-.066.066-.066.197-.132.263-.198l5.279-5.277c.462-.462 1.254-.528 1.781-.066l11.283 9.168c.264.264.462.594.462.99s-.132.725-.396.989l-6.334 6.332c-2.837 2.837-8.116 1.254-11.943-.593-5.608-2.705-12.272-7.784-18.804-14.314-6.532-6.53-11.613-13.192-14.318-18.798-1.914-3.958-3.497-9.169-.66-12.005Z"/><circle cx="408.736" cy="712" r="42" fill="#f7e643"/><path fill="#fff" d="M431.736 735h-46c0-12.703 10.298-23 23-23 12.703 0 23 10.297 23 23Z"/><circle cx="408.736" cy="697" r="9" fill="#fff"/><rect width="151" height="6" x="475.736" y="686" fill="#D4DFFF" rx="3"/><rect width="108" height="6" x="475.736" y="709" fill="#D4DFFF" rx="3"/><rect width="75" height="6" x="603.736" y="709" fill="#D4DFFF" rx="3"/><rect width="38" height="6" x="640.736" y="686" fill="#D4DFFF" rx="3"/><rect width="203" height="6" x="475.736" y="732" fill="#D4DFFF" rx="3"/><path fill="#abe4ff" d="m705.281 691.741 6.334-6.332c.264-.264.66-.462.99-.396.396 0 .726.198.99.462l9.237 11.279c.462.527.396 1.319-.066 1.781l-5.278 5.277-.066.066c0 .065-.066.065-.066.131s-.066.066-.066.132c0 0-.066.066-.066.132s0 .066-.066.132v.792c0 .066 0 .066.066.132 0 .066.066.066.066.132v.066c1.979 3.627 4.42 8.179 8.181 11.938 3.761 3.76 8.314 6.201 11.943 8.18h.066c.066 0 .132.065.198.065h.33c.132 0 .198 0 .33-.065h.066c.066 0 .132-.066.198-.066 0 0 .066 0 .066-.066.066-.066.197-.132.263-.198l5.279-5.277c.462-.462 1.254-.528 1.781-.066l11.283 9.168c.264.264.462.594.462.99s-.132.725-.396.989l-6.334 6.332c-2.837 2.837-8.116 1.254-11.943-.593-5.608-2.705-12.272-7.784-18.804-14.314-6.532-6.53-11.613-13.192-14.318-18.798-1.914-3.958-3.497-9.169-.66-12.005Z"/><path fill="#100f10" d="M488.483 241.75c-2.664 0-4.946-.58-6.845-1.739-1.9-1.172-3.361-2.8-4.385-4.884-1.011-2.084-1.517-4.502-1.517-7.252s.506-5.168 1.517-7.252c1.024-2.084 2.485-3.706 4.385-4.866 1.899-1.171 4.181-1.757 6.845-1.757 3.071 0 5.63.771 7.677 2.312 2.047 1.53 3.484 3.596 4.311 6.198l-4.496 1.24c-.518-1.739-1.4-3.096-2.645-4.071-1.246-.986-2.862-1.479-4.847-1.479-1.789 0-3.281.4-4.477 1.202-1.184.802-2.079 1.93-2.683 3.385-.592 1.443-.894 3.139-.906 5.088 0 1.949.296 3.651.888 5.106.604 1.443 1.504 2.565 2.701 3.367 1.196.802 2.688 1.202 4.477 1.202 1.985 0 3.601-.493 4.847-1.48 1.245-.986 2.127-2.343 2.645-4.07l4.496 1.24c-.827 2.602-2.264 4.674-4.311 6.216-2.047 1.529-4.606 2.294-7.677 2.294ZM515.799 241.75c-2.664 0-4.946-.58-6.845-1.739-1.899-1.172-3.361-2.8-4.385-4.884-1.011-2.084-1.517-4.502-1.517-7.252s.506-5.168 1.517-7.252c1.024-2.084 2.486-3.706 4.385-4.866 1.899-1.171 4.181-1.757 6.845-1.757 2.664 0 4.946.586 6.845 1.757 1.912 1.16 3.373 2.782 4.384 4.866 1.024 2.084 1.536 4.502 1.536 7.252s-.512 5.168-1.536 7.252c-1.011 2.084-2.472 3.712-4.384 4.884-1.899 1.159-4.181 1.739-6.845 1.739Zm0-4.2c1.788.013 3.274-.382 4.458-1.183 1.197-.802 2.091-1.931 2.683-3.386.604-1.455.906-3.157.906-5.106 0-1.949-.302-3.638-.906-5.069-.592-1.443-1.486-2.565-2.683-3.367-1.184-.802-2.67-1.215-4.458-1.239-1.788-.013-3.275.382-4.459 1.184-1.184.801-2.078 1.93-2.682 3.385-.592 1.455-.888 3.157-.888 5.106 0 1.949.296 3.645.888 5.088.592 1.43 1.48 2.546 2.664 3.348 1.196.802 2.689 1.215 4.477 1.239ZM532.246 241.195v-26.64h4.514l12.358 18.778v-18.778h4.514v26.64h-4.514l-12.358-18.778v18.778h-4.514ZM565.205 241.195v-22.459h-8.621v-4.181h21.7v4.181h-8.621v22.459h-4.458ZM578.67 241.195l8.399-26.64h6.53l8.399 26.64h-4.588l-7.622-23.902h.999l-7.529 23.902h-4.588Zm4.68-5.772v-4.162h13.986v4.162H583.35ZM615.887 241.75c-2.664 0-4.946-.58-6.845-1.739-1.899-1.172-3.361-2.8-4.385-4.884-1.011-2.084-1.517-4.502-1.517-7.252s.506-5.168 1.517-7.252c1.024-2.084 2.486-3.706 4.385-4.866 1.899-1.171 4.181-1.757 6.845-1.757 3.071 0 5.63.771 7.677 2.312 2.048 1.53 3.485 3.596 4.311 6.198l-4.496 1.24c-.518-1.739-1.399-3.096-2.645-4.071-1.246-.986-2.861-1.479-4.847-1.479-1.788 0-3.281.4-4.477 1.202-1.184.802-2.078 1.93-2.683 3.385-.592 1.443-.894 3.139-.906 5.088 0 1.949.296 3.651.888 5.106.604 1.443 1.505 2.565 2.701 3.367 1.196.802 2.689 1.202 4.477 1.202 1.986 0 3.601-.493 4.847-1.48 1.246-.986 2.127-2.343 2.645-4.07l4.496 1.24c-.826 2.602-2.263 4.674-4.311 6.216-2.047 1.529-4.606 2.294-7.677 2.294ZM638.338 241.195v-22.459h-8.621v-4.181h21.7v4.181h-8.621v22.459h-4.458ZM664.236 241.75c-1.949 0-3.706-.339-5.273-1.018-1.554-.678-2.836-1.646-3.848-2.904-.999-1.27-1.634-2.775-1.905-4.514l4.625-.703c.394 1.579 1.202 2.8 2.423 3.663 1.234.863 2.652 1.295 4.255 1.295.95 0 1.844-.148 2.683-.444.838-.296 1.517-.728 2.035-1.295.53-.567.795-1.264.795-2.091 0-.37-.061-.709-.185-1.017a2.412 2.412 0 0 0-.555-.851 3.405 3.405 0 0 0-.925-.666 6.258 6.258 0 0 0-1.295-.537l-6.882-2.034a19.45 19.45 0 0 1-1.924-.685 8.303 8.303 0 0 1-1.942-1.202c-.605-.518-1.104-1.172-1.499-1.961-.382-.802-.573-1.789-.573-2.961 0-1.714.431-3.151 1.295-4.31.875-1.172 2.047-2.047 3.515-2.627 1.48-.58 3.12-.863 4.921-.851 1.825.012 3.453.327 4.884.943a9.294 9.294 0 0 1 3.589 2.646c.962 1.159 1.64 2.559 2.035 4.199l-4.792.833c-.197-.937-.579-1.733-1.147-2.386a5.348 5.348 0 0 0-2.053-1.517 6.887 6.887 0 0 0-2.572-.555 6.797 6.797 0 0 0-2.479.406c-.752.272-1.363.667-1.831 1.184a2.658 2.658 0 0 0-.685 1.814c0 .653.198 1.19.592 1.609.395.407.882.734 1.462.98.592.235 1.19.432 1.794.593l4.773 1.331a25.59 25.59 0 0 1 2.202.704c.814.296 1.597.709 2.349 1.239.753.53 1.369 1.227 1.85 2.091.494.863.74 1.961.74 3.293 0 1.381-.29 2.596-.869 3.644a7.636 7.636 0 0 1-2.313 2.59c-.974.691-2.09 1.209-3.348 1.554a14.63 14.63 0 0 1-3.922.518Z"/><path fill="#68d5fc" d="m130.748 863.678 7.214-34.373a3.896 3.896 0 0 1 1.28-2.174c8.42-7.158 23.378-17.156 22.994-5.631-.5 15 12 23.5 25.5 26.5 9.209 2.046 10.105 11.266 9.136 17.555-.272 1.765-1.867 2.945-3.653 2.945h-58.556a4 4 0 0 1-3.915-4.822Z"/><path fill="#f7e643" fill-rule="evenodd" d="M172.508 841.5h-37.105l2.559-12.195a3.896 3.896 0 0 1 1.28-2.174c8.42-7.158 23.378-17.156 22.994-5.631-.296 8.871 3.956 15.469 10.272 20Z" clip-rule="evenodd"/><path fill="#68d5fc" d="m237.748 863.678 7.214-34.373a3.896 3.896 0 0 1 1.28-2.174c8.42-7.158 23.378-17.156 22.994-5.631-.5 15 12 23.5 25.5 26.5 9.209 2.046 10.105 11.266 9.136 17.555-.272 1.765-1.867 2.945-3.653 2.945h-58.556a4 4 0 0 1-3.915-4.822Z"/><path fill="#f7e643" fill-rule="evenodd" d="M279.508 841.5h-37.105l2.559-12.195a3.896 3.896 0 0 1 1.28-2.174c8.42-7.158 23.378-17.156 22.994-5.631-.296 8.871 3.956 15.469 10.272 20Z" clip-rule="evenodd"/><path fill="#abe4ff" d="M267.236 477.5c-45.6 11.2-88.667 4.667-104.5 0-22 43-7.473 65.896-13 104-9.5 65.5-48 133.5-55.5 174-4.792 25.875 5.333 61.333 13.5 76.5h85c-4-6-5-80 4-107.5s19-87.5 25.5-136c2.5 80.5-15 160.5-16.5 176-5.6 43.6 2.333 63.167 7 67.5h91c-6.667-10.167-18.2-43.3-11-94.5 9-64-9.5-215-25.5-260Z"/><path fill="#68d5fc" fill-rule="evenodd" d="M211.436 728.607c11.195-29.3 34.929-101.476 37.8-151.107 2.8-48.4-10.167-82.5-17-93.5-.563-.281-1.147-.57-1.743-.861-2.341.16-4.654.282-6.933.37l.676.491c14.4 10.4 4.333 74-2.5 104.5a6917.935 6917.935 0 0 0-3.623 29.055 1916.832 1916.832 0 0 0 4.123-29.055c1.646 53.011-5.38 105.806-10.8 140.107Z" clip-rule="evenodd"/><path fill="#f66" d="M237.736 233c41.6 17.2 25 73.5 11.5 99.5-11.167 27.833-43.4 84.2-83 87-49.5 3.5-68-14-65.5-46s37.5-48.5 59-60.5 7-45 20.5-62.5c11.572-15 28-28 57.5-17.5Z"/><path fill="#f7e643" d="M304.236 389.5c-41.2-52.8-70.167-67-79.5-67.5-79.5-9-99.369 48.397-114.5 84-17 40 8 44 10 40 7-23.5 17.5-27.5 23.5-31.5 4.8-3.2 14.667-15.333 19-21 4.5 11.5 4 71 0 85 33.5 9.5 81.5 7.5 104 0 1.897-.632.667-13.167 0-19-5.667-24.167-13.6-69 0-55 17 17.5 41 29.5 42.5 24-12.5-19-5-38.5-5-39Z"/><path fill="#F2F2F2" d="M280.069 382.5h-50.404a4 4 0 0 0-3.953 3.388l-11.762 76a4 4 0 0 0 3.953 4.612h50.405a3.999 3.999 0 0 0 3.952-3.388l11.762-76a4 4 0 0 0-3.953-4.612Z"/><path fill="#FCD0C5" d="M368.736 356c16.16-13.308 19-28.5 8-35-11-5-20.833 16.667-22 27l-51 41.5c-4.5 14.5-9.5 42.7 6.5 39.5 20-4 50-66 58.5-73ZM208.736 426c-6.8.8-47.167-7-66.5-11-23.5 10-24.5 28-24.5 31.5s32 2.5 48 2.5 40.5-8 45-5c30 16.5 36.5-15 30-19-14.5-9.5-23.5 0-32 1Z"/><path fill="#EFD3CC" d="M241.736 306.5c8.495-8.495 5.707-33.986 3.131-47.421-.184-.959-1.662-1.162-2.26-.391-6.925 8.929-28.472 18.812-34.371 18.812 0-2.5-4.5-13-11-8.5-9 6.5 4.5 21 6.5 23.5 1.946 2.433.105 20.962-4.603 32.093-.213.506.005 1.095.51 1.312 10.312 4.428 21.069 3.064 25.386 1.398.425-.164.647-.611.564-1.059-1.009-5.398-2.501-15.337-1.357-17.244 1.5-2.5 11.5 3 17.5-2.5Z"/><rect width="234" height="314" x="812.736" y="555" fill="#517CC0" rx="20"/><rect width="234" height="314" x="812.736" y="555" fill="#abe4ff" rx="20"/><path fill="#68d5fc" fill-rule="evenodd" d="M845.736 555v314h-13c-11.046 0-20-8.954-20-20V575c0-11.046 8.954-20 20-20h13Z" clip-rule="evenodd"/><circle cx="948.736" cy="701" r="84" fill="#fff"/><path fill="#ED5D20" d="M898.808 674c-1.118-18.273 11.004-20.872 18.457-19.789 1 .145 1.857.75 2.412 1.595 5.047 7.687 13.661 22.516 9.631 25.694-5.072 4-6 8 10.5 25 19.576 18.177 21.302 16.04 24.095 12.208.797-1.092 2.137-1.59 3.471-1.374 10.33 1.676 26.815 5.182 27.934 8.166 1.5 4 0 22-15 24-30.5 2.5-80-51-81.5-75.5Z"/><rect width="9.813" height="40" x="914.736" y="650.817" fill="#ED5D20" rx="2" transform="rotate(-22.887 914.736 650.817)"/><rect width="9.813" height="40" fill="#ED5D20" rx="2" transform="scale(-1 1) rotate(70.418 -983.673 -329.07)"/><rect width="24" height="31" x="800.736" y="590" fill="#f7e643" rx="4"/><rect width="24" height="31" x="800.736" y="647" fill="#f7e643" rx="4"/><rect width="24" height="31" x="800.736" y="738" fill="#f7e643" rx="4"/><rect width="24" height="31" x="800.736" y="795" fill="#f7e643" rx="4"/><path fill="#fff" d="M948.736 788c46.944 0 85.004-38.056 85.004-85s-38.06-85-85.004-85-85 38.056-85 85 38.056 85 85 85Z"/><path fill="#feafe5" fill-rule="evenodd" d="M961.988 724.184a5 5 0 0 1-4.718.344c-3.034-1.683-8.568-5.699-16.243-13.375-7.676-7.675-12.049-13.579-13.745-16.575a4.998 4.998 0 0 1 .344-4.717l4.412-7.727c1.581-2.741 1.938-4.475.217-7.14l-11.335-17.353c-3.226-5.1-4.871-4.87-7.65-3.595-14.459 6.579-20.107 15.886.408 48.284 5.533 8.734 22.44 27.221 36.86 36.58 30.881 20.056 41.042 14.025 47.073 0 1.275-2.831 1.836-4.475-3.022-7.65l-17.544-11.156c-2.664-1.709-3.965-2.155-6.719-.561l-8.338 4.641Z" clip-rule="evenodd"/></svg>